<?xml version="1.0" encoding="utf-8"?>
<!-- Generator: Adobe Illustrator 16.0.0, SVG Export Plug-In . SVG Version: 6.00 Build 0)  -->
<!DOCTYPE svg PUBLIC "-//W3C//DTD SVG 1.1//EN" "http://www.w3.org/Graphics/SVG/1.1/DTD/svg11.dtd">
<svg version="1.1" id="Capa_1" xmlns="http://www.w3.org/2000/svg" xmlns:xlink="http://www.w3.org/1999/xlink" x="0px" y="0px"
	 width="40px" height="30px" viewBox="0 0 40 30" enable-background="new 0 0 40 30" xml:space="preserve">
<rect x="6.594" y="14.793" fill="#144A9D" width="4.361" height="2.326"/>
<polygon fill="#144A9D" points="12.029,9.414 9.032,6.128 10.659,4.532 13.656,7.818 "/>
<polygon fill="#144A9D" points="19.044,6.773 19.168,0.573 21.408,0.613 21.284,6.813 "/>
<polygon fill="#144A9D" points="26.397,7.855 29.117,4.32 30.869,5.768 28.15,9.304 "/>
<polygon fill="#144A9D" points="12.304,20.313 9.308,23.764 10.935,25.44 13.931,21.987 "/>
<polygon fill="#144A9D" points="19.344,22.329 18.875,28.827 21.109,28.999 21.578,22.503 "/>
<polygon fill="#144A9D" points="26.673,21.948 29.393,25.664 31.145,24.143 28.426,20.426 "/>
<circle fill="#144A9D" cx="20.501" cy="14.793" r="6.49"/>
<polygon fill="#144A9D" points="29.797,14.024 34.15,13.755 34.283,16.078 29.93,16.343 "/>
</svg>
