<?xml version="1.0" encoding="utf-8"?>
<!-- Generator: Adobe Illustrator 16.0.0, SVG Export Plug-In . SVG Version: 6.00 Build 0)  -->
<!DOCTYPE svg PUBLIC "-//W3C//DTD SVG 1.1//EN" "http://www.w3.org/Graphics/SVG/1.1/DTD/svg11.dtd">
<svg version="1.1" id="Capa_1" xmlns="http://www.w3.org/2000/svg" xmlns:xlink="http://www.w3.org/1999/xlink" x="0px" y="0px"
	 width="40px" height="30px" viewBox="0 0 40 30" enable-background="new 0 0 40 30" xml:space="preserve">
<rect x="7.156" y="14.051" fill="#144A9D" width="4.178" height="2.228"/>
<polygon fill="#144A9D" points="12.362,8.653 9.492,5.506 11.05,3.977 13.92,7.125 "/>
<polygon fill="#144A9D" points="19.223,6.174 19.06,0.236 21.205,0.173 21.367,6.11 "/>
<polygon fill="#144A9D" points="26.125,7.16 28.729,3.773 30.408,5.161 27.804,8.548 "/>
<polygon fill="#144A9D" points="28.402,13.983 32.572,13.726 32.699,15.95 28.529,16.204 "/>
<circle fill="#144A9D" cx="20.121" cy="13.726" r="6.217"/>
<polygon fill="#144A9D" points="0.777,27.75 14.711,18.72 19.771,23.7 28.65,16.614 39.263,27.212 37.813,28.684 28.656,19.498 
	15.375,29.827 13.91,27.896 17.724,24.957 14.431,21.75 2.014,29.649 "/>
</svg>
