<?xml version="1.0" encoding="utf-8"?>
<!-- Generator: Adobe Illustrator 16.0.0, SVG Export Plug-In . SVG Version: 6.00 Build 0)  -->
<!DOCTYPE svg PUBLIC "-//W3C//DTD SVG 1.1//EN" "http://www.w3.org/Graphics/SVG/1.1/DTD/svg11.dtd">
<svg version="1.1" id="Capa_1" xmlns="http://www.w3.org/2000/svg" xmlns:xlink="http://www.w3.org/1999/xlink" x="0px" y="0px"
	 width="40px" height="30px" viewBox="0 0 40 30" enable-background="new 0 0 40 30" xml:space="preserve">
<path fill="#144A9D" d="M12.732,16.486c0-4.386,3.177-7.941,7.095-7.941c3.917,0,7.094,3.555,7.094,7.941"/>
<rect x="6.769" y="14.288" fill="#144A9D" width="4.178" height="2.228"/>
<polygon fill="#144A9D" points="11.975,8.89 9.105,5.743 10.663,4.214 13.533,7.362 "/>
<polygon fill="#144A9D" points="18.836,6.411 18.673,0.473 20.818,0.41 20.98,6.347 "/>
<polygon fill="#144A9D" points="25.738,7.397 28.343,4.011 30.021,5.398 27.417,8.785 "/>
<polygon fill="#144A9D" points="28.016,14.22 32.186,13.963 32.313,16.188 28.143,16.441 "/>
<rect x="0.476" y="19.857" fill="#144A9D" width="38.938" height="2.476"/>
<rect x="10.862" y="23.398" fill="#144A9D" width="17.746" height="2.477"/>
<rect x="16.813" y="26.746" fill="#144A9D" width="6.265" height="2.475"/>
</svg>
