<?xml version="1.0" encoding="utf-8"?>
<!-- Generator: Adobe Illustrator 16.0.0, SVG Export Plug-In . SVG Version: 6.00 Build 0)  -->
<!DOCTYPE svg PUBLIC "-//W3C//DTD SVG 1.1//EN" "http://www.w3.org/Graphics/SVG/1.1/DTD/svg11.dtd">
<svg version="1.1" id="Layer_1" xmlns="http://www.w3.org/2000/svg" xmlns:xlink="http://www.w3.org/1999/xlink" x="0px" y="0px"
	 width="25px" height="25px" viewBox="0 0 25 25" enable-background="new 0 0 25 25" xml:space="preserve">
<rect x="-0.365" y="-0.309" fill="#384C9D" width="25.619" height="25.617"/>
<g>
	<circle fill="#FFFFFF" cx="21.193" cy="3.794" r="0.837"/>
	<circle fill="#FFFFFF" cx="19.386" cy="5.468" r="0.837"/>
	<circle fill="#FFFFFF" cx="17.713" cy="7.277" r="0.837"/>
	<circle fill="#FFFFFF" cx="15.335" cy="9.621" r="0.837"/>
	<circle fill="#FFFFFF" cx="13.66" cy="11.295" r="0.838"/>
	<circle fill="#FFFFFF" cx="11.918" cy="13.003" r="0.837"/>
	<circle fill="#FFFFFF" cx="10.11" cy="14.677" r="0.836"/>
	<circle fill="#FFFFFF" cx="8.437" cy="16.486" r="0.837"/>
	<circle fill="#FFFFFF" cx="8.637" cy="18.762" r="0.836"/>
	<circle fill="#FFFFFF" cx="8.637" cy="21.207" r="0.837"/>
	<circle fill="#FFFFFF" cx="6.183" cy="16.175" r="0.836"/>
	<circle fill="#FFFFFF" cx="3.808" cy="16.351" r="0.837"/>
	<circle fill="#FFFFFF" cx="15.335" cy="7.143" r="0.837"/>
	<circle fill="#FFFFFF" cx="12.823" cy="7.143" r="0.837"/>
	<circle fill="#FFFFFF" cx="10.513" cy="7.277" r="0.836"/>
	<circle fill="#FFFFFF" cx="8.136" cy="7.143" r="0.837"/>
	<circle fill="#FFFFFF" cx="17.713" cy="9.621" r="0.837"/>
	<circle fill="#FFFFFF" cx="17.713" cy="11.897" r="0.838"/>
	<circle fill="#FFFFFF" cx="17.713" cy="14.242" r="0.838"/>
	<circle fill="#FFFFFF" cx="17.713" cy="16.718" r="0.837"/>
</g>
</svg>
