<?xml version="1.0" encoding="utf-8"?>
<!-- Generator: Adobe Illustrator 16.0.0, SVG Export Plug-In . SVG Version: 6.00 Build 0)  -->
<!DOCTYPE svg PUBLIC "-//W3C//DTD SVG 1.1//EN" "http://www.w3.org/Graphics/SVG/1.1/DTD/svg11.dtd">
<svg version="1.1" id="Layer_1" xmlns="http://www.w3.org/2000/svg" xmlns:xlink="http://www.w3.org/1999/xlink" x="0px" y="0px"
	 width="1150px" height="170px" viewBox="0 0 1150 170" enable-background="new 0 0 1150 170" xml:space="preserve">
<g>
	
		<polygon fill="#23356C" stroke="#23356C" stroke-width="12" stroke-linecap="round" stroke-linejoin="round" stroke-miterlimit="10" points="
		67.437,129.152 67.437,30.203 102.812,30.203 102.812,17.856 18.378,17.856 18.378,30.203 53.586,30.203 53.586,129.152 	"/>
	<g>
		<defs>
			<rect id="SVGID_1_" x="-531.052" y="-914.955" width="2000" height="2000"/>
		</defs>
		<clipPath id="SVGID_2_">
			<use xlink:href="#SVGID_1_"  overflow="visible"/>
		</clipPath>
		
			<path clip-path="url(#SVGID_2_)" fill="#23356C" stroke="#23356C" stroke-width="12" stroke-linecap="round" stroke-linejoin="round" stroke-miterlimit="10" d="
			M118.998,129.152V72.087c3.671-6.508,14.184-12.85,21.859-12.85c2.003,0,3.504,0.167,5.006,0.5V46.889
			c-11.012,0-20.357,6.175-26.865,14.684V48.558h-12.515v80.594H118.998z"/>
		
			<path clip-path="url(#SVGID_2_)" fill="#23356C" stroke="#23356C" stroke-width="12" stroke-linecap="round" stroke-linejoin="round" stroke-miterlimit="10" d="
			M189.746,122.145c-11.681,0-19.856-7.342-19.856-17.52c0-10.348,8.175-17.689,19.856-17.689c8.844,0,17.354,3.338,22.193,10.014
			v15.184C207.1,118.807,198.59,122.145,189.746,122.145z M224.454,129.152V73.755c0-19.523-14.184-27.2-31.204-27.2
			c-13.182,0-23.527,4.34-32.204,13.349l5.84,8.678c7.174-7.677,15.017-11.179,24.696-11.179c11.68,0,20.357,6.172,20.357,17.02
			v14.517c-6.507-7.51-15.685-11.014-26.698-11.014c-13.683,0-28.2,8.51-28.2,26.531c0,17.521,14.517,26.699,28.2,26.699
			c10.846,0,20.024-3.838,26.698-11.182v9.178H224.454z"/>
		
			<polygon clip-path="url(#SVGID_2_)" fill="#23356C" stroke="#23356C" stroke-width="12" stroke-linecap="round" stroke-linejoin="round" stroke-miterlimit="10" points="
			284.691,129.152 318.23,48.558 304.547,48.558 277.85,114.637 250.984,48.558 237.468,48.558 271.007,129.152 		"/>
		
			<path clip-path="url(#SVGID_2_)" fill="#23356C" stroke="#23356C" stroke-width="12" stroke-linecap="round" stroke-linejoin="round" stroke-miterlimit="10" d="
			M392.65,83.766h-52.896c0.668-12.347,9.178-26.864,26.365-26.864C384.474,56.902,392.483,71.752,392.65,83.766z M367.621,131.156
			c13.182,0,24.028-4.338,32.037-12.348l-6.007-8.178c-6.341,6.508-15.685,10.18-24.862,10.18
			c-17.355,0-28.033-12.682-29.035-27.867h65.244v-3.17c0-24.196-14.351-43.217-38.712-43.217
			c-23.027,0-39.714,18.854-39.714,42.215C326.572,113.969,343.759,131.156,367.621,131.156z"/>
		
			<rect x="425.186" y="17.855" clip-path="url(#SVGID_2_)" fill="#23356C" stroke="#23356C" stroke-width="12" stroke-linecap="round" stroke-linejoin="round" stroke-miterlimit="10" width="12.515" height="111.297"/>
		
			<polygon clip-path="url(#SVGID_2_)" fill="#23356C" stroke="#23356C" stroke-width="12" stroke-linecap="round" stroke-linejoin="round" stroke-miterlimit="10" points="
			536.149,129.152 536.149,116.805 477.08,116.805 477.08,78.426 534.981,78.426 534.981,66.079 477.08,66.079 477.08,30.203 
			536.149,30.203 536.149,17.856 463.23,17.856 463.23,129.152 		"/>
		
			<path clip-path="url(#SVGID_2_)" fill="#23356C" stroke="#23356C" stroke-width="12" stroke-linecap="round" stroke-linejoin="round" stroke-miterlimit="10" d="
			M585.873,122.145c-11.681,0-19.856-7.342-19.856-17.52c0-10.348,8.176-17.689,19.856-17.689c8.844,0,17.354,3.338,22.193,10.014
			v15.184C603.228,118.807,594.717,122.145,585.873,122.145z M620.581,129.152V73.755c0-19.523-14.184-27.2-31.204-27.2
			c-13.182,0-23.527,4.34-32.204,13.349l5.84,8.678c7.174-7.677,15.018-11.179,24.696-11.179c11.68,0,20.357,6.172,20.357,17.02
			v14.517c-6.508-7.51-15.686-11.014-26.698-11.014c-13.684,0-28.2,8.51-28.2,26.531c0,17.521,14.517,26.699,28.2,26.699
			c10.846,0,20.023-3.838,26.698-11.182v9.178H620.581z"/>
		
			<path clip-path="url(#SVGID_2_)" fill="#23356C" stroke="#23356C" stroke-width="12" stroke-linecap="round" stroke-linejoin="round" stroke-miterlimit="10" d="
			M671.139,131.156c20.858,0,31.704-10.846,31.704-24.363c0-31.37-49.893-19.689-49.893-37.377c0-7.175,6.842-12.681,17.854-12.681
			c10.346,0,19.188,4.338,24.028,10.178l5.841-8.677c-6.508-6.507-16.186-11.68-29.869-11.68c-19.189,0-30.035,10.679-30.035,23.194
			c0,29.867,49.892,17.854,49.892,37.377c0,8.01-6.674,13.85-19.021,13.85c-11.014,0-21.192-5.34-26.531-11.514l-6.508,9.012
			C646.776,127.15,657.956,131.156,671.139,131.156z"/>
		
			<path clip-path="url(#SVGID_2_)" fill="#23356C" stroke="#23356C" stroke-width="12" stroke-linecap="round" stroke-linejoin="round" stroke-miterlimit="10" d="
			M718.695,160.689c2.336,0.668,6.508,1.17,9.177,1.17c10.68-0.168,18.856-4.674,23.695-16.355l40.381-96.945h-13.683
			l-26.698,66.078l-26.865-66.078h-13.516l33.706,81.429l-5.341,12.18c-2.836,6.676-6.507,8.51-12.013,8.51
			c-2.003,0-5.006-0.5-6.842-1.334L718.695,160.689z"/>
		
			<path display="none" clip-path="url(#SVGID_2_)" fill="none" stroke="#46BDA1" stroke-width="12" stroke-linecap="round" stroke-linejoin="round" stroke-miterlimit="10" d="
			M802.127,130.822c5.006,0,9.178-4.172,9.178-9.178s-4.172-9.176-9.178-9.176s-9.178,4.17-9.178,9.176
			S797.121,130.822,802.127,130.822z"/>
		
			<path clip-path="url(#SVGID_2_)" fill="#2DB8EB" stroke="#2DB8EB" stroke-width="12" stroke-linecap="round" stroke-linejoin="round" stroke-miterlimit="10" d="
			M868.206,131.156c14.685,0,23.361-6.008,29.535-14.018l-8.344-7.676c-5.339,7.176-12.181,10.514-20.523,10.514
			c-17.188,0-27.866-13.35-27.866-31.205c0-17.854,10.679-31.036,27.866-31.036c8.343,0,15.185,3.17,20.523,10.512l8.344-7.675
			c-6.174-8.01-14.851-14.017-29.535-14.017c-24.028,0-40.214,18.354-40.214,42.215
			C827.992,112.803,844.178,131.156,868.206,131.156z"/>
		
			<path clip-path="url(#SVGID_2_)" fill="#2DB8EB" stroke="#2DB8EB" stroke-width="12" stroke-linecap="round" stroke-linejoin="round" stroke-miterlimit="10" d="
			M950.47,119.977c-17.188,0-26.865-14.686-26.865-31.205c0-16.352,9.678-31.036,26.865-31.036
			c17.187,0,26.698,14.684,26.698,31.036C977.168,105.291,967.656,119.977,950.47,119.977z M950.47,131.156
			c24.528,0,39.88-19.021,39.88-42.385c0-23.361-15.352-42.215-39.88-42.215c-24.529,0-39.881,18.854-39.881,42.215
			C910.589,112.135,925.94,131.156,950.47,131.156z"/>
		
			<path clip-path="url(#SVGID_2_)" fill="#2DB8EB" stroke="#2DB8EB" stroke-width="12" stroke-linecap="round" stroke-linejoin="round" stroke-miterlimit="10" d="
			M1120.502,129.152V70.919c0-16.186-7.843-24.364-22.526-24.364c-11.681,0-22.527,7.677-27.033,15.018
			c-2.337-8.342-9.344-15.018-21.691-15.018c-11.848,0-22.693,8.511-26.031,13.683v-11.68h-12.515v80.594h12.515V70.251
			c4.339-6.509,13.016-12.515,21.192-12.515c10.512,0,14.851,6.507,14.851,16.687v54.729h12.514V70.084
			c4.173-6.342,13.017-12.348,21.359-12.348c10.345,0,14.852,6.507,14.852,16.687v54.729H1120.502z"/>
	</g>
	
		<rect x="793.268" y="112.953" fill="#C82127" stroke="#C82127" stroke-width="12" stroke-linecap="round" stroke-linejoin="round" stroke-miterlimit="10" width="16" height="17.5"/>
</g>
</svg>
