<?xml version="1.0" encoding="utf-8"?>
<!-- Generator: Adobe Illustrator 16.0.0, SVG Export Plug-In . SVG Version: 6.00 Build 0)  -->
<!DOCTYPE svg PUBLIC "-//W3C//DTD SVG 1.1//EN" "http://www.w3.org/Graphics/SVG/1.1/DTD/svg11.dtd">
<svg version="1.1" id="Layer_1" xmlns="http://www.w3.org/2000/svg" xmlns:xlink="http://www.w3.org/1999/xlink" x="0px" y="0px"
	 width="46px" height="46px" viewBox="0 0 46 46" enable-background="new 0 0 46 46" xml:space="preserve">
<g>
	<g>
		<path fill-rule="evenodd" clip-rule="evenodd" fill="#23356D" stroke="#23356C" stroke-width="0.25" stroke-miterlimit="10" d="
			M-145.82-17.69c0,0.534,0,1.068,0,1.602c-0.505,0.791-0.958,1.648-1.524,2.362C-155.905-2.93-164.477,7.852-173.06,18.62
			c-0.567,0.712-1.249,1.282-1.878,1.917c-0.424,0-0.849,0-1.274,0c-0.356-0.274-0.765-0.479-1.061-0.834
			c-1.202-1.446-2.384-2.918-3.53-4.434c-0.16-0.212-0.175-0.762-0.086-1.08c0.711-2.542,0.39-4.844-1.116-6.738
			c-1.505-1.896-3.338-2.3-5.354-1.396c-0.226,0.102-0.618,0.19-0.728,0.042c-1.462-1.952-2.887-3.948-4.321-5.934
			c0-0.534,0-1.068,0-1.602c0.505-0.791,0.958-1.648,1.524-2.362c8.561-10.796,17.132-21.578,25.715-32.346
			c0.568-0.712,1.25-1.282,1.878-1.917c0.424,0,0.849,0,1.274,0c0.356,0.274,0.765,0.479,1.061,0.834
			c1.202,1.445,2.384,2.918,3.529,4.434c0.161,0.211,0.176,0.761,0.087,1.079c-0.709,2.543-0.387,4.846,1.117,6.738
			c1.504,1.893,3.337,2.305,5.354,1.396c0.226-0.102,0.618-0.189,0.728-0.042C-148.679-21.671-147.254-19.676-145.82-17.69z
			 M-165.507-29.098c-6.71,8.442-13.392,16.848-20.002,25.163c4.172,5.241,8.411,10.566,12.518,15.725
			c6.634-8.34,13.332-16.76,19.992-25.132C-157.133-18.549-161.353-23.863-165.507-29.098z"/>
	</g>
	<path fill-rule="evenodd" clip-rule="evenodd" fill="#2AB8EB" d="M-172.905,6.652c-2.823-3.558-5.69-7.173-8.459-10.664
		c5.338-6.721,10.698-13.468,16.018-20.166c2.767,3.479,5.655,7.114,8.481,10.668C-162.173-6.836-167.523-0.111-172.905,6.652z"/>
</g>
<g>
	<path fill-rule="evenodd" clip-rule="evenodd" fill="#2AB8EB" d="M175.295,20.923c-1.145,3.679-5.398,7.375-10.662,7.419
		c-4.744,0.037-9.592-3.195-10.865-7.414c1.067,0,2.109-0.027,3.148,0.02c0.215,0.012,0.471,0.253,0.617,0.455
		c3.633,5.014,10.428,5.023,14.006,0.031c0.184-0.258,0.602-0.465,0.926-0.488C173.396,20.88,174.336,20.923,175.295,20.923z"/>
	<path fill-rule="evenodd" clip-rule="evenodd" fill="#2AB8EB" d="M160.256,11.342c0,1.77-1.381,3.16-3.145,3.167
		c-1.789,0.006-3.226-1.435-3.202-3.212c0.021-1.742,1.448-3.133,3.204-3.125C158.877,8.18,160.258,9.572,160.256,11.342z"/>
	<path fill-rule="evenodd" clip-rule="evenodd" fill="#2AB8EB" d="M172.01,14.508c-1.773,0.011-3.17-1.354-3.191-3.12
		c-0.023-1.774,1.34-3.19,3.096-3.216c1.795-0.026,3.248,1.386,3.252,3.162C175.17,13.077,173.758,14.497,172.01,14.508z"/>
	
		<circle fill-rule="evenodd" clip-rule="evenodd" fill="none" stroke="#23356C" stroke-width="3" stroke-miterlimit="10" cx="164.498" cy="17.169" r="19.668"/>
</g>
<g>
	<g>
		<path fill-rule="evenodd" clip-rule="evenodd" fill="#23356D" d="M43.908,17.629c0,0.381,0,0.762,0,1.143
			c-0.454,0.564-0.859,1.176-1.368,1.686c-7.684,7.705-15.377,15.397-23.082,23.082c-0.51,0.508-1.121,0.914-1.686,1.368
			c-0.38,0-0.761,0-1.143,0c-0.32-0.196-0.688-0.342-0.953-0.595c-1.079-1.032-2.14-2.083-3.168-3.165
			c-0.143-0.151-0.157-0.544-0.078-0.771c0.639-1.813,0.35-3.455-1.001-4.808c-1.351-1.352-2.996-1.64-4.806-0.995
			c-0.203,0.072-0.554,0.137-0.654,0.03c-1.312-1.394-2.59-2.818-3.878-4.234c0-0.381,0-0.763,0-1.144
			c0.454-0.564,0.86-1.176,1.369-1.686c7.683-7.704,15.377-15.398,23.081-23.081c0.51-0.508,1.122-0.915,1.686-1.369
			c0.381,0,0.763,0,1.144,0c0.32,0.195,0.688,0.342,0.952,0.596c1.078,1.031,2.14,2.083,3.168,3.164
			c0.144,0.151,0.157,0.543,0.079,0.77c-0.638,1.814-0.349,3.458,1.001,4.809c1.35,1.351,2.995,1.645,4.807,0.996
			c0.202-0.073,0.555-0.135,0.653-0.03C41.343,14.789,42.621,16.213,43.908,17.629z M26.238,9.489
			c-6.024,6.024-12.021,12.022-17.954,17.956c3.745,3.74,7.55,7.54,11.234,11.222c5.956-5.951,11.967-11.959,17.945-17.934
			C33.753,17.017,29.968,13.225,26.238,9.489z"/>
	</g>
	<path fill-rule="evenodd" clip-rule="evenodd" fill="#2AB8EB" d="M19.598,34.999c-2.534-2.539-5.108-5.118-7.593-7.609
		c4.792-4.795,9.603-9.61,14.377-14.389c2.483,2.482,5.078,5.077,7.614,7.613C29.229,25.375,24.428,30.173,19.598,34.999z"/>
</g>
</svg>
