<?xml version="1.0" encoding="utf-8"?>
<!-- Generator: Adobe Illustrator 16.0.0, SVG Export Plug-In . SVG Version: 6.00 Build 0)  -->
<!DOCTYPE svg PUBLIC "-//W3C//DTD SVG 1.1//EN" "http://www.w3.org/Graphics/SVG/1.1/DTD/svg11.dtd">
<svg version="1.1" id="Layer_1" xmlns="http://www.w3.org/2000/svg" xmlns:xlink="http://www.w3.org/1999/xlink" x="0px" y="0px"
	 width="300px" height="300px" viewBox="0 0 300 300" enable-background="new 0 0 300 300" xml:space="preserve">
<rect x="-13" y="-14" fill-rule="evenodd" clip-rule="evenodd" fill="#DDDDDD" width="328" height="328"/>
<g>
	<path fill-rule="evenodd" clip-rule="evenodd" fill="#A8A8A8" d="M98.92,73.495c-0.756-16.634,3.369-25.799,12.309-27.787
		c-0.269,2.757-0.729,5.543-0.74,8.331c-0.006,1.576,0.563,3.221,1.172,4.712c0.826,2.02,2.005,2.87,4.596,2.015
		c15.556-5.133,31.438-8.851,47.864-9.715c8.5-0.446,16.919,0.078,24.856,3.581c6.882,3.036,11.403,8.09,12.668,15.669
		c0.342,2.059,1.206,3.057,3.334,3.677c5.316,1.552,8.152,5.684,9.827,10.707c2.256,6.769,3.063,13.801,2.231,20.812
		c-1.465,12.376-3.453,24.689-5.263,37.298c4.57,0.974,5.042,5.729,5.307,9.777c0.583,8.898-1.203,17.473-6.13,25.112
		c-0.989,1.531-2.276,3.447-3.813,3.921c-3.121,0.959-3.776,3.36-5.072,5.746c-3.651,6.73-7.164,13.633-11.701,19.751
		c-2.868,3.866-4.475,7.7-4.595,12.254c-0.168,6.471-0.092,12.947-0.048,19.421c0.014,2.147,0.603,3.741,3.087,4.63
		c4.422,1.585,6.809,5.339,7.308,9.778c0.41,3.631,2.068,4.805,5.388,5.521c22.688,4.908,45.331,10.034,67.998,15.043
		c9.214,2.037,15.865,7.781,21.471,14.897c2.677,3.398,4.839,7.202,7.585,11.353c-98.763,0-196.681,0-295.12,0
		c0.521-1.271,0.895-2.452,1.465-3.527c6.936-13.093,17.279-21.159,32.2-24.06c22.137-4.309,44.083-9.595,66.111-14.458
		c1.596-0.354,2.531-0.898,2.76-2.92c0.611-5.388,2.854-9.83,8.274-12.137c0.92-0.393,1.944-1.909,1.936-2.896
		c-0.087-8.979-0.338-17.96-0.706-26.933c-0.043-1.061-0.918-2.216-1.675-3.095c-6.298-7.317-10.976-15.576-14.657-24.473
		c-0.546-1.319-2.03-2.246-3.072-3.365c-1.913-2.055-4.313-3.842-5.64-6.224c-4.815-8.652-5.963-18.021-4.287-27.723
		c0.4-2.316,1.395-4.309,4.056-5.121c0.746-0.226,1.664-1.82,1.542-2.646c-0.732-4.964-1.756-9.885-2.658-14.825
		c-2.217-12.136-3.859-24.303-1.644-36.633C88.894,80.911,92.109,76.577,98.92,73.495z"/>
</g>
</svg>
