<?xml version="1.0" encoding="utf-8"?>
<!-- Generator: Adobe Illustrator 16.0.0, SVG Export Plug-In . SVG Version: 6.00 Build 0)  -->
<!DOCTYPE svg PUBLIC "-//W3C//DTD SVG 1.1//EN" "http://www.w3.org/Graphics/SVG/1.1/DTD/svg11.dtd">
<svg version="1.1" id="Layer_1" xmlns="http://www.w3.org/2000/svg" xmlns:xlink="http://www.w3.org/1999/xlink" x="0px" y="0px"
	 width="400px" height="400px" viewBox="0 0 400 400" enable-background="new 0 0 400 400" xml:space="preserve">
<rect x="2" y="2" fill="#37499C" width="30.216" height="30.216"/>
<g>
	<circle fill="#FFFFFF" cx="28.452" cy="5.747" r="1.092"/>
	<circle fill="#FFFFFF" cx="26.093" cy="7.932" r="1.092"/>
	<circle fill="#FFFFFF" cx="23.909" cy="10.292" r="1.093"/>
	<circle fill="#FFFFFF" cx="20.806" cy="13.351" r="1.092"/>
	<circle fill="#FFFFFF" cx="18.622" cy="15.535" r="1.093"/>
	<circle fill="#FFFFFF" cx="16.349" cy="17.764" r="1.092"/>
	<circle fill="#FFFFFF" cx="13.989" cy="19.948" r="1.092"/>
	<circle fill="#FFFFFF" cx="11.805" cy="22.308" r="1.092"/>
	<circle fill="#FFFFFF" cx="12.067" cy="25.279" r="1.093"/>
	<circle fill="#FFFFFF" cx="12.067" cy="28.469" r="1.093"/>
	<circle fill="#FFFFFF" cx="8.864" cy="21.904" r="1.091"/>
	<circle fill="#FFFFFF" cx="5.765" cy="22.132" r="1.092"/>
	<circle fill="#FFFFFF" cx="20.806" cy="10.117" r="1.092"/>
	<circle fill="#FFFFFF" cx="17.529" cy="10.117" r="1.092"/>
	<circle fill="#FFFFFF" cx="14.515" cy="10.292" r="1.092"/>
	<circle fill="#FFFFFF" cx="11.412" cy="10.117" r="1.092"/>
	<circle fill="#FFFFFF" cx="23.909" cy="13.351" r="1.093"/>
	<circle fill="#FFFFFF" cx="23.909" cy="16.321" r="1.093"/>
	<circle fill="#FFFFFF" cx="23.909" cy="19.381" r="1.093"/>
	<circle fill="#FFFFFF" cx="23.909" cy="22.613" r="1.093"/>
</g>
<rect x="42.216" y="2" fill="#B51F2B" width="30.216" height="30.216"/>
<g>
	<g>
		<linearGradient id="SVGID_1_" gradientUnits="userSpaceOnUse" x1="54.1572" y1="8.6807" x2="59.3734" y2="6.9219">
			<stop  offset="0.1277" style="stop-color:#F7941E"/>
			<stop  offset="1" style="stop-color:#F9ED32"/>
		</linearGradient>
		<path fill="url(#SVGID_1_)" d="M58.633,9.353c-1.042,1.386-2.783,1.836-3.891,1.004c-1.107-0.832-1.16-2.63-0.119-4.016
			c1.042-1.386,2.783-1.836,3.891-1.004S59.675,7.967,58.633,9.353z"/>
		<linearGradient id="SVGID_2_" gradientUnits="userSpaceOnUse" x1="58.7593" y1="11.5112" x2="62.2765" y2="10.3253">
			<stop  offset="0.1277" style="stop-color:#F7941E"/>
			<stop  offset="1" style="stop-color:#F9ED32"/>
		</linearGradient>
		<path fill="url(#SVGID_2_)" d="M61.778,11.964c-0.703,0.936-1.877,1.238-2.624,0.678c-0.747-0.562-0.783-1.773-0.081-2.708
			c0.703-0.936,1.876-1.238,2.624-0.677C62.443,9.817,62.479,11.029,61.778,11.964z"/>
		
			<linearGradient id="SVGID_3_" gradientUnits="userSpaceOnUse" x1="50.5386" y1="29.4995" x2="53.0871" y2="28.6402" gradientTransform="matrix(1.0491 -0.0653 -0.0653 1.087 11.3502 -15.1104)">
			<stop  offset="0.1277" style="stop-color:#F7941E"/>
			<stop  offset="1" style="stop-color:#F9ED32"/>
		</linearGradient>
		<path fill="url(#SVGID_3_)" d="M64.715,13.868c-0.578,0.769-1.486,1.063-2.026,0.658c-0.541-0.407-0.511-1.36,0.066-2.13
			c0.579-0.77,1.486-1.063,2.027-0.658C65.323,12.145,65.293,13.098,64.715,13.868z"/>
		
			<linearGradient id="SVGID_4_" gradientUnits="userSpaceOnUse" x1="52.9663" y1="31.1655" x2="55.0378" y2="30.4671" gradientTransform="matrix(1.0491 -0.0653 -0.0653 1.087 11.3502 -15.1104)">
			<stop  offset="0" style="stop-color:#F7AE22"/>
			<stop  offset="1" style="stop-color:#F9ED32"/>
		</linearGradient>
		<path fill="url(#SVGID_4_)" d="M66.728,15.479c-0.47,0.625-1.208,0.865-1.647,0.534c-0.44-0.33-0.416-1.104,0.055-1.73
			c0.469-0.625,1.207-0.865,1.646-0.535C67.222,14.08,67.198,14.854,66.728,15.479z"/>
		
			<linearGradient id="SVGID_5_" gradientUnits="userSpaceOnUse" x1="54.9438" y1="32.2798" x2="56.4185" y2="31.7826" gradientTransform="matrix(1.0491 -0.0653 -0.0653 1.087 11.3502 -15.1104)">
			<stop  offset="0" style="stop-color:#F8DD2E"/>
			<stop  offset="1" style="stop-color:#F9ED32"/>
		</linearGradient>
		<path fill="url(#SVGID_5_)" d="M68.197,16.511c-0.334,0.446-0.859,0.616-1.172,0.381c-0.313-0.236-0.296-0.787,0.038-1.232
			c0.334-0.445,0.86-0.616,1.173-0.381C68.549,15.514,68.532,16.066,68.197,16.511z"/>
	</g>
	<linearGradient id="SVGID_6_" gradientUnits="userSpaceOnUse" x1="49.0552" y1="17.1563" x2="54.2713" y2="15.3975">
		<stop  offset="0.1277" style="stop-color:#F7941E"/>
		<stop  offset="1" style="stop-color:#F9ED32"/>
	</linearGradient>
	<path fill="url(#SVGID_6_)" d="M53.531,17.829c-1.042,1.386-2.783,1.836-3.891,1.004c-1.107-0.832-1.161-2.63-0.12-4.016
		c1.042-1.386,2.783-1.836,3.891-1.004C54.519,14.644,54.572,16.442,53.531,17.829z"/>
	<linearGradient id="SVGID_7_" gradientUnits="userSpaceOnUse" x1="54.9629" y1="18.0132" x2="58.4797" y2="16.8274">
		<stop  offset="0.1277" style="stop-color:#F7941E"/>
		<stop  offset="1" style="stop-color:#F9ED32"/>
	</linearGradient>
	<path fill="url(#SVGID_7_)" d="M57.98,18.466c-0.702,0.935-1.876,1.238-2.623,0.677c-0.747-0.561-0.782-1.773-0.081-2.708
		c0.703-0.935,1.876-1.238,2.623-0.678C58.646,16.318,58.683,17.531,57.98,18.466z"/>
	
		<linearGradient id="SVGID_8_" gradientUnits="userSpaceOnUse" x1="48.0488" y1="34.0015" x2="50.5974" y2="33.1422" gradientTransform="matrix(1.0491 -0.0653 -0.0653 1.087 11.3502 -15.1104)">
		<stop  offset="0.1277" style="stop-color:#F7941E"/>
		<stop  offset="1" style="stop-color:#F9ED32"/>
	</linearGradient>
	<path fill="url(#SVGID_8_)" d="M61.809,18.924c-0.578,0.77-1.485,1.064-2.026,0.658c-0.542-0.407-0.511-1.36,0.067-2.129
		c0.578-0.77,1.485-1.064,2.026-0.658C62.417,17.202,62.387,18.155,61.809,18.924z"/>
	
		<linearGradient id="SVGID_9_" gradientUnits="userSpaceOnUse" x1="51.0864" y1="34.5942" x2="53.158" y2="33.8958" gradientTransform="matrix(1.0491 -0.0653 -0.0653 1.087 11.3502 -15.1104)">
		<stop  offset="0" style="stop-color:#F7AE22"/>
		<stop  offset="1" style="stop-color:#F9ED32"/>
	</linearGradient>
	<path fill="url(#SVGID_9_)" d="M64.532,19.33c-0.47,0.625-1.207,0.865-1.647,0.535c-0.44-0.331-0.416-1.105,0.055-1.731
		c0.469-0.625,1.207-0.864,1.646-0.534C65.026,17.93,65.001,18.704,64.532,19.33z"/>
	
		<linearGradient id="SVGID_10_" gradientUnits="userSpaceOnUse" x1="53.8135" y1="34.9858" x2="55.2885" y2="34.4885" gradientTransform="matrix(1.0491 -0.0653 -0.0653 1.087 11.3502 -15.1104)">
		<stop  offset="0" style="stop-color:#F8DD2E"/>
		<stop  offset="1" style="stop-color:#F9ED32"/>
	</linearGradient>
	<path fill="url(#SVGID_10_)" d="M66.834,19.526c-0.335,0.446-0.86,0.617-1.172,0.381c-0.313-0.235-0.296-0.787,0.039-1.232
		c0.334-0.445,0.859-0.616,1.173-0.381C67.186,18.529,67.168,19.081,66.834,19.526z"/>
	
		<linearGradient id="SVGID_11_" gradientUnits="userSpaceOnUse" x1="-10.0342" y1="-3.6001" x2="-4.8176" y2="-5.359" gradientTransform="matrix(0.8578 -0.0047 -0.2265 0.8942 54.2569 28.9645)">
		<stop  offset="0.1277" style="stop-color:#F7941E"/>
		<stop  offset="1" style="stop-color:#F9ED32"/>
	</linearGradient>
	<path fill="url(#SVGID_11_)" d="M50.152,26.373c-1.208,1.245-2.803,1.655-3.565,0.916c-0.761-0.739-0.4-2.347,0.808-3.591
		c1.207-1.244,2.804-1.655,3.564-0.916C51.721,23.52,51.36,25.127,50.152,26.373z"/>
	<linearGradient id="SVGID_12_" gradientUnits="userSpaceOnUse" x1="52.7412" y1="24.7642" x2="56.258" y2="23.5784">
		<stop  offset="0.1277" style="stop-color:#F7941E"/>
		<stop  offset="1" style="stop-color:#F9ED32"/>
	</linearGradient>
	<path fill="url(#SVGID_12_)" d="M55.759,25.218c-0.702,0.935-1.876,1.238-2.623,0.677s-0.783-1.773-0.08-2.708
		c0.702-0.935,1.876-1.238,2.623-0.677C56.425,23.07,56.461,24.283,55.759,25.218z"/>
	
		<linearGradient id="SVGID_13_" gradientUnits="userSpaceOnUse" x1="34.2256" y1="29.0679" x2="36.7746" y2="28.2084" gradientTransform="matrix(0.9562 -0.1351 -0.1351 1.0346 29.1994 -1.7033)">
		<stop  offset="0.1277" style="stop-color:#F7941E"/>
		<stop  offset="1" style="stop-color:#F9ED32"/>
	</linearGradient>
	<path fill="url(#SVGID_13_)" d="M60.045,23.789c-0.578,0.77-1.421,1.111-1.884,0.765c-0.462-0.348-0.368-1.252,0.209-2.022
		c0.578-0.77,1.421-1.112,1.884-0.765C60.717,22.114,60.623,23.02,60.045,23.789z"/>
	
		<linearGradient id="SVGID_14_" gradientUnits="userSpaceOnUse" x1="38.5234" y1="29.021" x2="40.595" y2="28.3225" gradientTransform="matrix(0.9704 -0.1244 -0.1244 1.0426 27.9624 -2.6325)">
		<stop  offset="0" style="stop-color:#F7AE22"/>
		<stop  offset="1" style="stop-color:#F9ED32"/>
	</linearGradient>
	<path fill="url(#SVGID_14_)" d="M63.427,22.888c-0.47,0.625-1.163,0.898-1.549,0.608c-0.386-0.289-0.318-1.031,0.153-1.657
		c0.47-0.625,1.163-0.897,1.549-0.607C63.965,21.521,63.897,22.263,63.427,22.888z"/>
	
		<linearGradient id="SVGID_15_" gradientUnits="userSpaceOnUse" x1="53.188" y1="37.6411" x2="54.663" y2="37.1438" gradientTransform="matrix(1.0491 -0.0653 -0.0653 1.087 11.3502 -15.1104)">
		<stop  offset="0" style="stop-color:#F8DD2E"/>
		<stop  offset="1" style="stop-color:#F9ED32"/>
	</linearGradient>
	<path fill="url(#SVGID_15_)" d="M66.004,22.453c-0.334,0.446-0.859,0.617-1.173,0.381c-0.313-0.235-0.296-0.787,0.039-1.232
		c0.334-0.445,0.859-0.616,1.173-0.381C66.356,21.457,66.339,22.007,66.004,22.453z"/>
</g>
</svg>
