<?xml version="1.0" encoding="utf-8"?>
<!-- Generator: Adobe Illustrator 16.0.0, SVG Export Plug-In . SVG Version: 6.00 Build 0)  -->
<!DOCTYPE svg PUBLIC "-//W3C//DTD SVG 1.1//EN" "http://www.w3.org/Graphics/SVG/1.1/DTD/svg11.dtd">
<svg version="1.1" id="Layer_1" xmlns="http://www.w3.org/2000/svg" xmlns:xlink="http://www.w3.org/1999/xlink" x="0px" y="0px"
	 width="2px" height="2px" viewBox="0 0 2 2" enable-background="new 0 0 2 2" xml:space="preserve">
<g>
	<g>
		<circle fill="#040305" cx="1.243" cy="0.264" r="0.211"/>
		<path fill="#040305" d="M1.77,0.779C1.582,0.76,1.398,0.555,1.353,0.527C1.324,0.506,1.291,0.493,1.259,0.488
			c0,0-0.023-0.005-0.046-0.002C1.19,0.489,1.156,0.49,1.105,0.527C1.102,0.529,1.077,0.552,1.068,0.561
			C1.006,0.626,0.833,0.817,0.748,1.033C0.735,1.063,0.743,1.097,0.764,1.12l-0.101,0.18L0.521,1.22
			c-0.017-0.01-0.039-0.003-0.048,0.013L0.204,1.708C0.194,1.726,0.2,1.747,0.217,1.756l0.108,0.061
			c-0.017,0.031-0.013,0.07,0.013,0.097c0.031,0.031,0.082,0.032,0.114,0c0.029-0.029,0.032-0.076,0.007-0.107l0.146-0.258
			l0.104-0.184l0.127-0.221C0.864,1.14,0.889,1.121,0.9,1.094c0.037-0.092,0.093-0.18,0.147-0.253l0.026,0.294
			C1.076,1.169,1.09,1.198,1.111,1.221c-0.066,0.12-0.244,0.448-0.308,0.56c-0.029,0.05-0.012,0.114,0.038,0.142
			c0.019,0.011,0.04,0.015,0.06,0.014c0.033-0.002,0.064-0.021,0.083-0.052c0.06-0.104,0.216-0.418,0.284-0.537
			c0.055,0.091,0.148,0.259,0.267,0.527c0.017,0.039,0.055,0.062,0.095,0.062c0.014,0,0.028-0.002,0.042-0.008
			C1.727,1.905,1.75,1.843,1.727,1.791c-0.14-0.316-0.243-0.492-0.3-0.584C1.45,1.178,1.462,1.143,1.459,1.102L1.435,0.823
			c0.07,0.056,0.162,0.103,0.318,0.12c0.003,0,0.006,0,0.008,0c0.041,0,0.078-0.032,0.083-0.074C1.848,0.824,1.816,0.784,1.77,0.779
			z M0.394,1.889c-0.017,0-0.029-0.014-0.029-0.029c0-0.017,0.013-0.03,0.029-0.03c0.016,0,0.029,0.014,0.029,0.03
			C0.423,1.875,0.41,1.889,0.394,1.889z"/>
	</g>
</g>
</svg>
